<svg xmlns="http://www.w3.org/2000/svg" width="80" height="80" viewBox="0 0 80 80">
    <defs>
        <style>
            .cls-2{stroke:#000;stroke-width:.5px}
        </style>
    </defs>
    <g id="グループ_65" transform="translate(-39 -464)">
        <circle id="楕円形_4" cx="40" cy="40" r="40" fill="#1db954" transform="translate(39 464)"/>
        <g id="official" transform="translate(66.593 482.998)">
            <path id="パス_66" d="M15.338 17.1l7.362-3.157a.7.7 0 0 0 .424-.643V.7a.7.7 0 0 0-.7-.7H2.83a.7.7 0 0 0-.7.7v12.6a.7.7 0 0 0 .424.643L9.921 17.1a12.6 12.6 0 1 0 5.416 0zm-2.708-.363L6.3 14.026 6.33 1.4h12.6l-.03 12.65zm9.1-3.9l-1.426.611.025-12.048h1.4zM3.53 1.4h1.4l-.025 12.027-1.375-.589zm9.1 39.2a11.2 11.2 0 1 1 11.2-11.2 11.2 11.2 0 0 1-11.201 11.2zm0 0" class="cls-2"/>
            <path id="パス_67" d="M41.835 224a9.8 9.8 0 1 0 9.8 9.8 9.8 9.8 0 0 0-9.8-9.8zm0 18.2a8.4 8.4 0 1 1 8.4-8.4 8.4 8.4 0 0 1-8.4 8.4zm0 0" class="cls-2" transform="translate(-29.205 -204.401)"/>
            <path id="パス_68" d="M81.85 279.273a1.4 1.4 0 0 1-.822-.272 1.379 1.379 0 0 1-.508-1.565l.7-2.163-1.84-1.337a1.4 1.4 0 0 1 .82-2.536h2.274l.7-2.163a1.4 1.4 0 0 1 2.66 0l.7 2.163h2.276a1.4 1.4 0 0 1 .823 2.533l-1.833 1.339.7 2.163A1.4 1.4 0 0 1 86.346 279l-1.836-1.337L82.67 279a1.4 1.4 0 0 1-.82.273zM80.2 272.8l1.84 1.337a1.4 1.4 0 0 1 .508 1.565l-.7 2.163 1.839-1.337a1.4 1.4 0 0 1 1.646 0l1.84 1.336-.703-2.164a1.4 1.4 0 0 1 .508-1.565l1.84-1.337h-2.274a1.4 1.4 0 0 1-1.334-.967l-.7-2.163v-.008l-.7 2.17a1.4 1.4 0 0 1-1.334.969zm0 0" class="cls-2" transform="translate(-71.88 -244.804)"/>
        </g>
    </g>
</svg>
