<svg xmlns="http://www.w3.org/2000/svg" width="80" height="80" viewBox="0 0 80 80">
    <g transform="translate(-147 -464)">
        <circle cx="40" cy="40" r="40" fill="#1db954" transform="translate(147 464)"/>
        <path d="M76.612 41.029H68a12.591 12.591 0 0 0-12.65 12.516v8.519A12.591 12.591 0 0 0 68 74.58h8.61a12.591 12.591 0 0 0 12.65-12.516v-8.519a12.591 12.591 0 0 0-12.65-12.516zM77 57.8h-3.25v10.712h-4.329V57.8h-2.165v-4.278h2.165v-1.928a4.2 4.2 0 0 1 4.545-4.5h3.319v3.712h-2.453a.877.877 0 0 0-.938 1v1.713h3.463z" transform="translate(115.193 446.195)"/>
    </g>
</svg>
