<svg xmlns="http://www.w3.org/2000/svg" width="80" height="80" viewBox="0 0 80 80">
    <g transform="translate(-259 -464)">
        <circle cx="40" cy="40" r="40" fill="#1db954" transform="translate(259 464)"/>
        <path d="M44.9 20.869a14.719 14.719 0 0 1-4.113 1.138 7 7 0 0 0 3.15-3.981 15.11 15.11 0 0 1-4.55 1.75 7.181 7.181 0 0 0-12.425 4.9 6.56 6.56 0 0 0 .175 1.619 20.2 20.2 0 0 1-14.744-7.481 7.2 7.2 0 0 0 2.188 9.581 6.889 6.889 0 0 1-3.238-.875 7.251 7.251 0 0 0 5.731 7.131 7.875 7.875 0 0 1-3.238.131 7.2 7.2 0 0 0 6.694 4.988A14.456 14.456 0 0 1 9.9 42.744a20.24 20.24 0 0 0 11.025 3.238c13.213 0 20.388-10.938 20.388-20.388a6.461 6.461 0 0 0-.044-.919 14.241 14.241 0 0 0 3.631-3.806z" transform="translate(273.1 472.259)"/>
    </g>
</svg>
