<svg xmlns="http://www.w3.org/2000/svg" width="40" height="40" viewBox="0 0 40 40">
    <defs>
        <style>
            .cls-2{fill:#fff}
        </style>
    </defs>
    <g id="album" transform="translate(-29 -232)">
        <path id="長方形_21" fill="none" d="M0 0H40V40H0z" transform="translate(29 232)"/>
        <g id="グループ_12" transform="translate(-3003.489 -1273.287)">
            <path id="パス_4" d="M3052.735 1518.444a.75.75 0 0 0 0-1.5 8.6 8.6 0 0 0-8.59 8.589.75.75 0 0 0 1.5 0 7.1 7.1 0 0 1 7.09-7.089z" class="cls-2"/>
            <path id="パス_5" d="M3052.735 1522.95a2.583 2.583 0 1 0 2.583 2.583 2.587 2.587 0 0 0-2.583-2.583z" class="cls-2"/>
            <path id="パス_6" d="M3052.735 1516.045a.75.75 0 0 0 0-1.5 11 11 0 0 0-10.989 10.988.75.75 0 0 0 1.5 0 9.5 9.5 0 0 1 9.489-9.488z" class="cls-2"/>
            <path id="パス_7" d="M3052.735 1520.2a5.333 5.333 0 1 0 5.333 5.333 5.34 5.34 0 0 0-5.333-5.333zm3.726 5.333a3.732 3.732 0 1 1-1.093-2.634 3.731 3.731 0 0 1 1.093 2.634z" class="cls-2"/>
            <path id="パス_8" d="M3066.923 1524.235a14.248 14.248 0 1 0-15.486 15.487q.643.057 1.282.057a14.261 14.261 0 0 0 14.2-15.544zm-5.282 10.2a12.6 12.6 0 1 1-8.89-21.507c.377 0 .756.017 1.135.051a12.6 12.6 0 0 1 7.755 21.456z" class="cls-2"/>
        </g>
    </g>
</svg>
