<svg xmlns="http://www.w3.org/2000/svg" width="40" height="40" viewBox="0 0 40 40">
    <defs>
        <style>
            .cls-2{fill:#fff}
        </style>
    </defs>
    <g id="musician" transform="translate(-29 -172)">
        <path id="長方形_19" fill="none" d="M0 0H40V40H0z" transform="translate(29 172)"/>
        <g id="グループ_9" transform="translate(-3003.472 -1274.686)">
            <g id="グループ_8">
                <path id="パス_1" d="M3062.3 1470.524l-6.058-2.688v-2.31a5.246 5.246 0 0 0 1.752-3.914v-4.012c.6-.324 1.2-1.078 1.516-2.677a13.582 13.582 0 0 0 .236-2.361.876.876 0 0 0-.876-.876h-7.007a4.384 4.384 0 0 0-4.38 4.379v5.547a5.243 5.243 0 0 0 1.752 3.914v2.307l-6.133 2.69a.877.877 0 0 0-.524.8v9.382a.876.876 0 0 0 .876.876h18.491a.876.876 0 0 0 .876-.876v-9.382a.877.877 0 0 0-.521-.8zm-6.058-8.912a3.5 3.5 0 1 1-7.007 0v-3.8h7.007zm-4.379-8.174h6.086a10.625 10.625 0 0 1-.161 1.162c-.225 1.107-.548 1.465-.67 1.465h-7.883a2.63 2.63 0 0 1 2.624-2.627zm.876 13.43a5.213 5.213 0 0 0 1.751-.3v1.838a.876.876 0 0 0 .4.733l-2.18 1.664-2.125-1.658a.875.875 0 0 0 .406-.738v-1.839a5.22 5.22 0 0 0 1.744.3zm8.33 12.963h-1.752v-2.745a.875.875 0 0 0-1.751 0v2.745h-9.732v-2.745a.876.876 0 0 0-1.752 0v2.745h-1.752v-7.931l4.438-1.946 3.393 2.648a.874.874 0 0 0 1.07.006l3.47-2.649 4.368 1.939z" class="cls-2"/>
                <path id="パス_2" d="M3064.121 1461.788h-.876v-.876a.876.876 0 0 0-1.752 0v.876h-.875a.875.875 0 1 0 0 1.751h.875v.876a.876.876 0 0 0 1.752 0v-.876h.876a.875.875 0 1 0 0-1.751z" class="cls-2"/>
                <path id="パス_3" d="M3043.976 1459.16v-.876h.876a.876.876 0 0 0 0-1.752h-.876v-.876a.876.876 0 0 0-1.752 0v.876h-.876a.876.876 0 0 0 0 1.752h.876v.876a.876.876 0 0 0 1.752 0z" class="cls-2"/>
            </g>
        </g>
    </g>
</svg>
