<svg xmlns="http://www.w3.org/2000/svg" width="54" height="40" viewBox="0 0 54 40">
    <g>
        <path fill="#1db954" d="M9 0h36a9 9 0 0 1 9 9v22a9 9 0 0 1-9 9H9a9 9 0 0 1-9-9V9a9 9 0 0 1 9-9z" transform="translate(-285 -582) translate(285 582)"/>
        <g>
            <path fill="#fff" d="M3313.68 1883.071a8.577 8.577 0 0 0 5.272-1.811l5.685 5.685a1.069 1.069 0 0 0 1.512-1.511l-5.685-5.685a8.6 8.6 0 1 0-6.784 3.322zm-4.568-13.162a6.46 6.46 0 1 1 0 9.135 6.437 6.437 0 0 1-.033-9.1l.033-.033z" transform="translate(-285 -582) translate(-3004.08 -1274.879)"/>
        </g>
    </g>
</svg>
