<svg xmlns="http://www.w3.org/2000/svg" width="40" height="40" viewBox="0 0 40 40">
    <defs>
        <style>
            .cls-2{fill:#fff}
        </style>
    </defs>
    <g id="song" transform="translate(-29 -288)">
        <path id="長方形_22" fill="none" d="M0 0H40V40H0z" transform="translate(29 288)"/>
        <g id="グループ_15" transform="translate(-3004.169 -1275.054)">
            <path id="パス_10" d="M3057.523 1577.4l-8.089 1.156a.866.866 0 0 0-.744.857v7.686a3.564 3.564 0 0 0-1.761 0 3.142 3.142 0 0 0-2 1.393 1.972 1.972 0 0 0-.208 1.539 2.487 2.487 0 0 0 2.522 1.582 3.761 3.761 0 0 0 .9-.111 3.144 3.144 0 0 0 2-1.392 2 2 0 0 0 .267-1.233.843.843 0 0 0 .016-.16v-8.532a.021.021 0 0 1 .019-.021l6.313-.9a.021.021 0 0 1 .024.021v6.662a3.566 3.566 0 0 0-1.761 0 3.143 3.143 0 0 0-2 1.392 1.972 1.972 0 0 0-.208 1.539 2.488 2.488 0 0 0 2.522 1.582 3.712 3.712 0 0 0 .9-.111 3.141 3.141 0 0 0 2-1.392 2.032 2.032 0 0 0 .279-1.088V1578.3a.9.9 0 0 0-.117-.472.867.867 0 0 0-.874-.428zm-8.884 11.841a1.456 1.456 0 0 1-.913.575c-.728.181-1.285-.075-1.343-.274a.269.269 0 0 1 .047-.186 1.455 1.455 0 0 1 .913-.575 2.022 2.022 0 0 1 .487-.061c.479 0 .81.185.855.336a.261.261 0 0 1-.046.188zm8.089-1.156a1.455 1.455 0 0 1-.913.576c-.725.181-1.285-.075-1.342-.274a.263.263 0 0 1 .046-.186 1.454 1.454 0 0 1 .913-.576 2.081 2.081 0 0 1 .487-.061c.479 0 .81.185.855.336a.259.259 0 0 1-.046.188z" class="cls-2"/>
            <path id="パス_11" d="M3063.122 1569.054h-21.378c-1.753 0-2.575 1.424-2.575 3.177v21.178c0 1.753.822 3.178 2.575 3.178h21.378a3.181 3.181 0 0 0 3.178-3.178v-21.178a3.18 3.18 0 0 0-3.178-3.177zm-21.378 1.733h21.378a1.447 1.447 0 0 1 1.445 1.444v.867H3040.9v-.867c0-.796.048-1.444.844-1.444zm21.378 24.067h-21.378c-.8 0-.842-.649-.842-1.445v-18.577h23.665v18.577a1.448 1.448 0 0 1-1.445 1.445z" class="cls-2"/>
        </g>
    </g>
</svg>
