<svg xmlns="http://www.w3.org/2000/svg" width="80" height="80" viewBox="0 0 80 80">
    <defs>
        <style>
            .cls-2{stroke:#000;stroke-width:.3px}
        </style>
    </defs>
    <g id="グループ_64" transform="translate(-39 -350)">
        <circle id="楕円形_9" cx="40" cy="40" r="40" fill="#1db954" transform="translate(39 350)"/>
        <g id="wikipedia" transform="translate(62.789 373.625)">
            <g id="グループ_50" transform="translate(5.821 13.497)">
                <g id="グループ_49">
                    <path id="パス_56" d="M111.149 211h-3.838a.96.96 0 0 0 0 1.919h.588l-2.507 7.52-2.507-7.52h.588a.96.96 0 0 0 0-1.919h-3.838a.96.96 0 0 0 0 1.919h.588l-2.507 7.52-2.507-7.52h.591a.96.96 0 0 0 0-1.919h-3.841a.96.96 0 0 0 0 1.919h1.227l3.619 10.858a.96.96 0 0 0 1.821 0l2.928-8.783 2.928 8.783a.959.959 0 0 0 1.82 0l3.619-10.858h1.227a.96.96 0 0 0 0-1.919z" class="cls-2" transform="translate(-91 -211)"/>
                </g>
            </g>
            <g id="グループ_52">
                <g id="グループ_51">
                    <path id="パス_57" d="M29.872 0H2.878A2.882 2.882 0 0 0 0 2.878v26.994a2.882 2.882 0 0 0 2.878 2.878h26.994a2.882 2.882 0 0 0 2.878-2.878V2.878A2.882 2.882 0 0 0 29.872 0zM1.919 2.878a.961.961 0 0 1 .959-.959h18.295v5.757H1.919zm28.913 26.994a.961.961 0 0 1-.959.959H2.878a.961.961 0 0 1-.959-.959V9.595h28.913zm0-22.2h-7.74V1.919h6.78a.961.961 0 0 1 .959.959z" class="cls-2"/>
                </g>
            </g>
            <g id="グループ_54" transform="translate(3.838 3.838)">
                <g id="グループ_53">
                    <path id="パス_58" d="M62.942 60h-1.983a.959.959 0 0 0 0 1.919h1.983a.959.959 0 0 0 0-1.919z" class="cls-2" transform="translate(-60 -60)"/>
                </g>
            </g>
            <g id="グループ_56" transform="translate(9.659 3.838)">
                <g id="グループ_55">
                    <path id="パス_59" d="M153.878 60h-1.918a.959.959 0 1 0 0 1.919h1.919a.959.959 0 1 0 0-1.919z" class="cls-2" transform="translate(-151 -60)"/>
                </g>
            </g>
            <g id="グループ_58" transform="translate(15.416 3.838)">
                <g id="グループ_57">
                    <path id="パス_60" d="M243.878 60h-1.919a.959.959 0 0 0 0 1.919h1.919a.959.959 0 1 0 0-1.919z" class="cls-2" transform="translate(-241 -60)"/>
                </g>
            </g>
        </g>
    </g>
</svg>
