<svg xmlns="http://www.w3.org/2000/svg" width="80" height="80" viewBox="0 0 80 80">
    <defs>
        <style>
            .cls-2{fill:#aaa}
        </style>
    </defs>
    <g id="グループ_60" transform="translate(-259 -350)">
        <circle id="楕円形_8" cx="40" cy="40" r="40" fill="#ccc" transform="translate(259 350)"/>
        <g id="content-writing" transform="translate(282 372.625)">
            <path id="パス_61" d="M31.477 1H3.033A3.037 3.037 0 0 0 0 4.033V28.3a3.037 3.037 0 0 0 3.033 3.033h17.255v3.033a1.011 1.011 0 0 0 2.022 0V24.254h2.09v10.11a1.011 1.011 0 0 0 2.022 0v-10.11h1.955v10.11a1.011 1.011 0 0 0 2.022 0v-3.033h1.078A3.037 3.037 0 0 0 34.51 28.3V4.033A3.037 3.037 0 0 0 31.477 1zM3.033 3.022h28.444a1.012 1.012 0 0 1 1.011 1.011v5.055H2.022V4.033a1.012 1.012 0 0 1 1.011-1.011zm20.155 19.21L25.343 19l2.157 3.232zm8.289 7.077H30.4v-6.066a1.011 1.011 0 0 0-.17-.561l-4.044-6.066a1.012 1.012 0 0 0-1.683 0l-4.044 6.066a1.011 1.011 0 0 0-.17.561v6.066H3.033A1.012 1.012 0 0 1 2.022 28.3V11.11h30.466V28.3a1.012 1.012 0 0 1-1.011 1.011z" class="cls-2"/>
            <path id="パス_62" d="M70.1 301h-8.089A1.011 1.011 0 0 0 61 302.011v4.044a1.011 1.011 0 0 0 1.011 1.011H70.1a1.011 1.011 0 0 0 1.011-1.011v-4.044A1.011 1.011 0 0 0 70.1 301zm-1.011 4.044h-6.067v-2.022h6.066z" class="cls-2" transform="translate(-56.888 -279.779)"/>
            <path id="パス_63" d="M80.21 181h-18.2a1.011 1.011 0 1 0 0 2.022h18.2a1.011 1.011 0 1 0 0-2.022z" class="cls-2" transform="translate(-56.888 -167.868)"/>
            <path id="パス_64" d="M76.166 241H62.011a1.011 1.011 0 1 0 0 2.022h14.155a1.011 1.011 0 1 0 0-2.022z" class="cls-2" transform="translate(-56.888 -223.823)"/>
            <circle id="楕円形_11" cx="1" cy="1" r="1" class="cls-2" transform="translate(4 5)"/>
            <circle id="楕円形_12" cx="1" cy="1" r="1" class="cls-2" transform="translate(8 5)"/>
            <circle id="楕円形_13" cx="1" cy="1" r="1" class="cls-2" transform="translate(12 5)"/>
            <path id="パス_65" d="M332.011 63.022h6.066a1.011 1.011 0 1 0 0-2.022h-6.066a1.011 1.011 0 1 0 0 2.022z" class="cls-2" transform="translate(-308.69 -55.956)"/>
        </g>
    </g>
</svg>
