<svg xmlns="http://www.w3.org/2000/svg" width="80" height="80" viewBox="0 0 80 80">
    <defs>
        <style>
            .cls-2{fill:#aaa}
        </style>
    </defs>
    <g id="グループ_42" transform="translate(-39 -352)">
        <path id="パス_55" fill="#ccc" d="M40 0A40 40 0 1 1 0 40 40 40 0 0 1 40 0z" transform="translate(39 352)"/>
        <g id="グループ_31" transform="translate(-3004.883 -1273.726)">
            <g id="グループ_30">
                <g id="グループ_20">
                    <path id="パス_16" d="M3081.282 1674.178h-8.639a.833.833 0 1 1 0-1.667h8.639a.833.833 0 0 1 0 1.667z" class="cls-2"/>
                    <path id="パス_17" d="M3081.282 1674.5h-8.639a1.156 1.156 0 0 1 0-2.311h8.639a1.156 1.156 0 0 1 0 2.311zm-8.639-1.667a.511.511 0 1 0 0 1.023h8.639a.511.511 0 0 0 0-1.023z" class="cls-2"/>
                </g>
                <g id="グループ_27">
                    <g id="グループ_22">
                        <g id="グループ_21">
                            <path id="パス_18" d="M3084.13 1670.876h-3.4a.833.833 0 1 1 0-1.667h3.4a.833.833 0 0 1 0 1.667z" class="cls-2"/>
                            <path id="パス_19" d="M3084.13 1671.2h-3.4a1.155 1.155 0 0 1 0-2.31h3.4a1.155 1.155 0 0 1 0 2.31zm-3.4-1.667a.511.511 0 1 0 0 1.023h3.4a.511.511 0 0 0 0-1.023z" class="cls-2"/>
                        </g>
                    </g>
                    <g id="グループ_24">
                        <g id="グループ_23">
                            <path id="パス_20" d="M3073.2 1670.876h-3.4a.833.833 0 0 1 0-1.667h3.4a.833.833 0 0 1 0 1.667z" class="cls-2"/>
                            <path id="パス_21" d="M3073.2 1671.2h-3.4a1.155 1.155 0 0 1 0-2.31h3.4a1.155 1.155 0 0 1 0 2.31zm-3.4-1.667a.511.511 0 1 0 0 1.023h3.4a.511.511 0 0 0 0-1.023z" class="cls-2"/>
                        </g>
                    </g>
                    <g id="グループ_26">
                        <g id="グループ_25">
                            <path id="パス_22" d="M3076.978 1670.876a.832.832 0 1 1 .811-.644.842.842 0 0 1-.811.644z" class="cls-2"/>
                            <path id="パス_23" d="M3076.978 1671.2a1.155 1.155 0 1 1 1.124-.892 1.17 1.17 0 0 1-1.124.892zm0-1.664a.506.506 0 1 0 .269.075.518.518 0 0 0-.268-.077z" class="cls-2"/>
                        </g>
                    </g>
                </g>
                <g id="グループ_28">
                    <path id="パス_24" d="M3074.392 1667.423a1.844 1.844 0 0 1-1.845-1.9l.057-2.071-1.263-1.642a1.845 1.845 0 0 1 .94-2.9l1.988-.586 1.171-1.709a1.847 1.847 0 0 1 1.522-.8 1.844 1.844 0 0 1 1.522.8l1.172 1.709 1.987.586a1.845 1.845 0 0 1 .941 2.9l-1.264 1.642.057 2.071a1.845 1.845 0 0 1-2.462 1.79l-1.953-.7-1.952.7a1.86 1.86 0 0 1-.618.106zm2.57-9.934a.171.171 0 0 0-.147.077l-1.339 1.954a.832.832 0 0 1-.452.328l-2.271.67a.173.173 0 0 0-.12.116.17.17 0 0 0 .029.163l1.444 1.878a.833.833 0 0 1 .173.531l-.066 2.367a.171.171 0 0 0 .074.149.168.168 0 0 0 .164.024l2.232-.793a.822.822 0 0 1 .558 0l2.232.793a.178.178 0 0 0 .238-.173l-.065-2.367a.836.836 0 0 1 .172-.531l1.445-1.878a.178.178 0 0 0-.091-.279l-2.272-.67a.835.835 0 0 1-.452-.328l-1.339-1.954a.171.171 0 0 0-.147-.077z" class="cls-2"/>
                    <path id="パス_25" d="M3079.533 1667.745a2.167 2.167 0 0 1-.726-.125l-1.845-.656-1.844.656a2.167 2.167 0 0 1-2.892-2.1l.053-1.957-1.193-1.552a2.167 2.167 0 0 1 1.1-3.4l1.878-.553 1.107-1.615a2.167 2.167 0 0 1 3.575 0l1.106 1.615 1.878.553a2.166 2.166 0 0 1 1.105 3.4l-1.194 1.552.054 1.957a2.167 2.167 0 0 1-2.166 2.226zm-2.571-11.6a1.522 1.522 0 0 0-1.256.663l-1.236 1.8-2.1.618a1.524 1.524 0 0 0-.776 2.391l1.333 1.732-.06 2.187a1.522 1.522 0 0 0 2.033 1.476l2.06-.732 2.061.732a1.523 1.523 0 0 0 2.033-1.477l-.06-2.186 1.333-1.732a1.523 1.523 0 0 0-.777-2.391l-2.1-.618-1.236-1.8a1.522 1.522 0 0 0-1.252-.665zm2.573 9.936a.53.53 0 0 1-.169-.029l-2.232-.794a.5.5 0 0 0-.343 0l-2.232.793a.5.5 0 0 1-.667-.484l.065-2.368a.512.512 0 0 0-.106-.326l-1.444-1.877a.5.5 0 0 1 .254-.785l2.272-.67a.512.512 0 0 0 .278-.2l1.339-1.954a.514.514 0 0 1 .825 0l1.339 1.954a.516.516 0 0 0 .277.2l2.272.669a.5.5 0 0 1 .255.785l-1.445 1.877a.518.518 0 0 0-.106.326l.066 2.367a.5.5 0 0 1-.5.515zm-2.573-1.5a1.161 1.161 0 0 1 .387.066l2.035.724-.06-2.158a1.165 1.165 0 0 1 .239-.737l1.317-1.711-2.071-.61a1.161 1.161 0 0 1-.626-.455l-1.221-1.781-1.22 1.78a1.161 1.161 0 0 1-.627.456l-2.071.61 1.317 1.711a1.155 1.155 0 0 1 .239.737l-.059 2.158 2.034-.724a1.165 1.165 0 0 1 .387-.064z" class="cls-2"/>
                </g>
                <g id="グループ_29">
                    <path id="パス_26" d="M3090.886 1650.981h-.148a2.974 2.974 0 0 0-2-.772h-23.551a2.986 2.986 0 0 0-2.982 2.982v23.615a2.985 2.985 0 0 0 2.982 2.982h23.551a2.969 2.969 0 0 0 2-.772h.148a14.019 14.019 0 0 0 0-28.038zm.834 10.179a3.932 3.932 0 0 1 0 7.679zm-2.982 16.962h-23.551a1.316 1.316 0 0 1-1.315-1.315v-23.615a1.317 1.317 0 0 1 1.315-1.315h23.551a1.317 1.317 0 0 1 1.315 1.315v23.615a1.317 1.317 0 0 1-1.315 1.315zm2.936-.795a2.973 2.973 0 0 0 .046-.52v-6.274a5.6 5.6 0 0 0 0-11.067v-2.922a8.54 8.54 0 0 1 7.651 8.456.833.833 0 0 0 1.667 0 10.172 10.172 0 0 0-9.318-10.13v-1.678a2.953 2.953 0 0 0-.046-.519 12.354 12.354 0 0 1 0 24.654z" class="cls-2"/>
                    <path id="パス_27" d="M3088.738 1680.111h-23.551a3.307 3.307 0 0 1-3.3-3.3v-23.615a3.308 3.308 0 0 1 3.3-3.3h23.551a3.3 3.3 0 0 1 2.119.771h.029a14.34 14.34 0 0 1 0 28.681h-.029a3.3 3.3 0 0 1-2.119.763zm-23.551-29.579a2.663 2.663 0 0 0-2.66 2.66v23.615a2.663 2.663 0 0 0 2.66 2.661h23.551a2.655 2.655 0 0 0 1.784-.689l.1-.087h.268a13.7 13.7 0 0 0 0-27.394h-.269l-.095-.086a2.655 2.655 0 0 0-1.784-.689zm23.551 27.912h-23.551a1.638 1.638 0 0 1-1.637-1.637v-23.615a1.639 1.639 0 0 1 1.637-1.637h23.551a1.64 1.64 0 0 1 1.637 1.637v23.615a1.639 1.639 0 0 1-1.637 1.637zm-23.551-26.245a.994.994 0 0 0-.994.993v23.615a1 1 0 0 0 .994.994h23.551a.994.994 0 0 0 .993-.994v-23.615a.994.994 0 0 0-.993-.993zm26.1 25.475l.072-.4a2.746 2.746 0 0 0 .04-.464v-6.55l.274-.042a5.276 5.276 0 0 0 0-10.43l-.274-.042v-3.555l.354.036a8.894 8.894 0 0 1 7.941 8.776.511.511 0 1 0 1.023 0 9.851 9.851 0 0 0-9.022-9.81l-.3-.024v-1.974a2.764 2.764 0 0 0-.04-.464l-.071-.4.408.026a12.676 12.676 0 0 1 0 25.3zm.756-6.87v6.168a12.034 12.034 0 0 0 0-23.951v1.553a10.495 10.495 0 0 1 9.317 10.426 1.156 1.156 0 0 1-2.311 0 8.252 8.252 0 0 0-7.007-8.093v2.289a5.921 5.921 0 0 1 0 11.608zm-.644-1.565v-8.478l.39.085a4.254 4.254 0 0 1 0 8.308zm.644-7.655v6.832a3.611 3.611 0 0 0 0-6.832z" class="cls-2"/>
                </g>
            </g>
        </g>
    </g>
</svg>
